<svg width="65" height="65" viewBox="0 0 65 65" fill="none" xmlns="http://www.w3.org/2000/svg">
<g clip-path="url(#clip0_1_11518)">
<path d="M30.55 61.5875C30.55 60.97 30.9725 59.5725 31.4925 58.5L32.4025 56.55H31.07C28.925 56.55 26.195 57.33 24.9275 58.305C23.335 59.5075 20.8 59.7675 18.2 58.9875C16.2825 58.4025 16.25 58.37 16.25 57.2325C16.2825 56.225 16.4775 55.9 17.7125 55.0225C18.4925 54.4375 19.37 53.95 19.6625 53.95C19.9225 53.95 20.15 53.82 20.15 53.6575C20.15 53.2025 18.8825 52.52 16.3475 51.545C14.495 50.83 13.715 50.7 12.545 50.8625C10.595 51.155 9.00249 50.6025 7.24749 48.9775C6.07749 47.905 5.84999 47.4825 5.84999 46.475C5.84999 45.3375 5.91499 45.24 7.05249 45.045C7.73499 44.9475 8.96999 44.85 9.84749 44.85C11.4725 44.85 11.57 44.7525 10.9525 43.68C9.81499 41.6975 7.53999 39.325 6.17499 38.7075C5.36249 38.3825 4.38749 37.7325 3.96499 37.2775C3.11999 36.4 2.27499 33.6375 2.27499 31.785C2.27499 30.5825 2.30749 30.55 3.41249 30.55C4.02999 30.55 5.42749 30.9725 6.49999 31.4925L8.44999 32.4025V31.07C8.44999 28.925 7.66999 26.195 6.69499 24.9275C5.49249 23.335 5.23249 20.8 6.01249 18.2C6.59749 16.2825 6.62999 16.25 7.76749 16.25C8.77499 16.2825 9.09999 16.4775 10.01 17.7125C10.5625 18.4925 11.05 19.37 11.05 19.6625C11.05 20.54 11.6675 20.1825 12.35 18.85C13.78 16.0225 14.365 14.04 14.1375 12.545C13.845 10.5625 14.43 8.90499 16.0225 7.24749C17.1275 6.10999 17.5825 5.84999 18.5575 5.84999C19.6625 5.84999 19.76 5.91499 19.955 7.05249C20.0525 7.73499 20.15 8.96999 20.15 9.84749C20.15 10.6925 20.2475 11.375 20.345 11.375C21.4175 11.375 25.6425 7.60499 26.3575 6.01249C26.6825 5.29749 27.3 4.35499 27.7225 3.96499C28.6 3.11999 31.3625 2.27499 33.2475 2.27499C34.4175 2.27499 34.45 2.30749 34.45 3.41249C34.45 4.02999 34.0275 5.42749 33.5075 6.49999L32.5975 8.44999H33.93C36.075 8.44999 38.805 7.66999 40.0725 6.69499C41.665 5.49249 44.2 5.23249 46.8 6.01249C48.7175 6.59749 48.75 6.62999 48.75 7.76749C48.7175 8.77499 48.5225 9.09999 47.2875 9.97749C46.5075 10.5625 45.63 11.05 45.3375 11.05C45.0775 11.05 44.85 11.18 44.85 11.3425C44.85 11.7975 46.1175 12.48 48.6525 13.455C50.505 14.17 51.285 14.3 52.455 14.1375C54.405 13.845 55.9975 14.3975 57.7525 16.0225C58.9225 17.095 59.15 17.5175 59.15 18.525C59.15 19.6625 59.085 19.76 57.9475 19.955C57.265 20.0525 56.03 20.15 55.185 20.15C53.5275 20.15 53.43 20.2475 54.0475 21.32C55.185 23.3025 57.46 25.675 58.825 26.2925C59.6375 26.6175 60.645 27.3 61.0675 27.755C61.8475 28.5675 62.725 31.525 62.725 33.41C62.725 34.385 62.66 34.45 61.5875 34.45C60.97 34.45 59.5725 34.0275 58.5 33.5075L56.55 32.5975V33.93C56.55 36.075 57.33 38.805 58.305 40.0725C59.5075 41.665 59.7675 44.2 58.9875 46.8C58.4025 48.7175 58.37 48.75 57.2325 48.75C56.225 48.7175 55.9 48.5225 55.0225 47.2875C54.4375 46.5075 53.95 45.63 53.95 45.3375C53.95 45.0775 53.82 44.85 53.6575 44.85C53.2025 44.85 52.52 46.1175 51.545 48.6525C50.83 50.505 50.7 51.285 50.8625 52.455C51.155 54.405 50.6025 55.9975 48.9775 57.7525C47.905 58.9225 47.4825 59.15 46.475 59.15C45.3375 59.15 45.24 59.085 45.045 57.9475C44.9475 57.265 44.85 56.03 44.85 55.185C44.85 54.3075 44.7525 53.625 44.655 53.625C43.5825 53.625 39.3575 57.395 38.6425 58.9875C38.3175 59.7025 37.7 60.645 37.2775 61.035C36.4 61.88 33.6375 62.725 31.785 62.725C30.5825 62.725 30.55 62.6925 30.55 61.5875ZM31.4275 47.7425C33.3125 46.93 35.9125 46.93 37.4725 47.7425L38.675 48.36V47.5475C38.675 46.5725 40.105 44.655 41.3075 44.005C41.795 43.745 42.9325 43.55 43.7775 43.55H45.3375L45.4025 41.21C45.5 38.35 46.2475 36.8225 47.97 35.8475C48.6525 35.425 49.0425 35.1 48.815 35.1C48.1325 35.1 47.125 32.2725 47.125 30.42C47.125 29.4125 47.385 28.2425 47.7425 27.5275L48.36 26.325H47.5475C46.5725 26.325 44.655 24.895 44.005 23.6925C43.745 23.205 43.55 22.0675 43.55 21.2225V19.6625L41.2425 19.5975C38.3825 19.5 36.9525 18.85 35.9125 17.095C35.4575 16.38 35.1 15.9575 35.1 16.185C35.1 16.8675 32.2725 17.875 30.42 17.875C29.4125 17.875 28.2425 17.615 27.5275 17.2575L26.325 16.64V17.4525C26.325 18.4275 24.895 20.345 23.6925 20.995C23.205 21.255 22.0675 21.45 21.1575 21.45C19.76 21.45 19.565 21.515 19.7275 22.0675C19.9875 23.1075 19.2725 26.91 18.6225 27.755C18.2975 28.1775 17.5175 28.86 16.9 29.2175C16.2825 29.575 15.9575 29.9 16.185 29.9C16.8675 29.9 17.875 32.7275 17.875 34.58C17.875 35.5875 17.615 36.7575 17.2575 37.4725L16.64 38.675H17.4525C18.4275 38.675 20.345 40.105 20.995 41.3075C21.255 41.795 21.45 42.9325 21.45 43.7775V45.3375L23.7575 45.4025C26.585 45.5 28.08 46.1825 29.0225 47.8075C29.4125 48.49 29.8025 48.9125 29.8675 48.7175C29.9325 48.5225 30.615 48.1 31.4275 47.7425ZM30.16 12.4475C29.835 12.3825 29.315 12.3825 29.0225 12.4475C28.6975 12.545 28.9575 12.61 29.575 12.61C30.1925 12.61 30.4525 12.545 30.16 12.4475Z" fill="black"/>
<path d="M0 32.5V0H32.5H65V32.5V65H32.5H0V32.5ZM33.7675 61.2625C35.7825 60.7425 36.855 59.865 37.6675 58.0125C38.35 56.485 41.21 53.9175 43.9725 52.3575C45.0125 51.7725 46.735 50.4725 47.775 49.4975C49.6925 47.7425 49.6925 47.71 49.335 48.815C49.14 49.4 48.36 50.57 47.6125 51.3825C46.8325 52.195 46.1175 53.3325 45.9875 53.9175C45.76 55.055 46.085 58.175 46.4425 58.175C46.8975 58.175 49.0425 55.705 49.4975 54.665C49.79 53.9825 49.855 53.0725 49.725 52.0325C49.5625 50.7325 49.6925 49.985 50.505 47.905C51.0575 46.475 51.9675 44.5575 52.5525 43.5825C53.105 42.6075 53.9175 40.7875 54.3075 39.52L55.055 37.2125L55.2825 38.5125C55.4125 39.325 55.315 40.2675 55.0225 41.1125C54.405 42.8675 54.6975 44.59 55.9975 46.3125C56.55 47.0925 57.135 47.7425 57.2325 47.775C57.33 47.775 57.655 46.9625 57.98 45.955C58.6625 43.81 58.4675 42.64 57.2 40.7875C56.0625 39.195 55.575 36.92 55.38 32.5C55.315 30.615 55.055 28.2425 54.795 27.235C54.5675 26.195 54.405 25.35 54.47 25.35C54.795 25.35 56.1925 27.95 56.3875 28.925C56.745 30.68 57.7525 31.8175 59.735 32.695C60.71 33.1175 61.555 33.4425 61.62 33.3775C61.685 33.345 61.5225 32.435 61.295 31.395C60.775 29.2175 59.8975 28.145 57.85 27.2675C56.29 26.5525 54.3725 24.375 51.935 20.475C51.22 19.305 49.9525 17.6475 49.14 16.8025L47.6125 15.2425L48.75 15.6325C49.3675 15.86 50.57 16.64 51.415 17.42C52.2275 18.2 53.3 18.915 53.755 19.045C54.73 19.2725 58.175 18.915 58.175 18.5575C58.175 18.1025 55.705 15.9575 54.665 15.5025C53.9825 15.21 53.0725 15.145 52.0325 15.275C50.7325 15.4375 49.985 15.3075 47.905 14.495C46.475 13.9425 44.5575 13.0325 43.5825 12.4475C42.6075 11.895 40.7875 11.0825 39.52 10.6925L37.2125 9.945L38.5125 9.7175C39.325 9.5875 40.2675 9.685 41.1125 9.9775C42.8675 10.595 44.59 10.3025 46.3125 9.0025C47.0925 8.45 47.7425 7.865 47.775 7.7675C47.775 7.67 46.9625 7.345 45.955 7.02C43.81 6.3375 42.64 6.5325 40.7875 7.8325C39.195 8.905 36.92 9.425 32.4675 9.5875C30.615 9.685 28.2425 9.945 27.235 10.1725C26.195 10.4325 25.35 10.595 25.35 10.53C25.35 10.205 27.95 8.8075 28.925 8.6125C30.68 8.255 31.8175 7.2475 32.695 5.265C33.1175 4.29 33.41 3.4125 33.345 3.3475C33.28 3.2825 32.37 3.445 31.3625 3.705C29.2175 4.2575 28.145 5.135 27.3325 6.9875C26.65 8.515 23.79 11.0825 21.0275 12.6425C19.9875 13.2275 18.265 14.5275 17.225 15.5025C15.3075 17.2575 15.3075 17.29 15.665 16.185C15.86 15.6 16.64 14.43 17.3875 13.6175C18.1675 12.805 18.8825 11.6675 19.0125 11.0825C19.24 9.945 18.915 6.825 18.5575 6.825C18.1025 6.825 15.665 9.62 15.4375 10.4C15.275 10.855 15.21 12.0575 15.2425 13.0975C15.3075 15.275 14.69 17.16 12.545 21.255C11.7325 22.7825 10.8225 24.895 10.4975 25.9025L9.945 27.7875L9.7175 26.4875C9.5875 25.675 9.685 24.7325 9.9775 23.8875C10.595 22.1325 10.3025 20.41 9.0025 18.6875C8.45 17.9075 7.865 17.2575 7.7675 17.225C7.67 17.225 7.345 18.0375 7.02 19.045C6.3375 21.19 6.5325 22.36 7.8325 24.2125C8.905 25.805 9.425 28.08 9.5875 32.5325C9.685 34.385 9.945 36.7575 10.1725 37.7975C10.4325 38.805 10.595 39.65 10.53 39.65C10.205 39.65 8.8075 37.05 8.6125 36.075C8.255 34.32 7.2475 33.1825 5.265 32.305C4.29 31.8825 3.4125 31.59 3.3475 31.655C3.2825 31.72 3.445 32.63 3.705 33.6375C4.2575 35.815 5.135 36.855 7.15 37.7325C8.71 38.4475 10.6275 40.625 13.065 44.525C13.78 45.695 15.0475 47.3525 15.86 48.1975L17.3875 49.7575L16.25 49.3675C15.6325 49.14 14.43 48.36 13.585 47.58C12.7725 46.8 11.7 46.085 11.245 45.955C10.27 45.7275 6.825 46.085 6.825 46.4425C6.825 46.8975 9.295 49.0425 10.335 49.4975C11.0175 49.79 11.9275 49.855 12.9675 49.725C14.2675 49.5625 15.015 49.6925 17.095 50.505C18.525 51.0575 20.4425 51.9675 21.4175 52.5525C22.3925 53.105 24.2125 53.9175 25.48 54.3075L27.7875 55.055L26.4875 55.2825C25.675 55.4125 24.7325 55.315 23.8875 55.0225C22.1325 54.405 20.41 54.6975 18.6875 55.9975C17.9075 56.55 17.2575 57.135 17.225 57.2325C17.225 57.33 18.0375 57.655 19.045 57.98C21.19 58.6625 22.36 58.4675 24.2125 57.1675C25.805 56.095 28.08 55.575 32.5325 55.4125C34.385 55.315 36.7575 55.055 37.7975 54.8275C38.805 54.5675 39.65 54.405 39.65 54.47C39.65 54.795 37.05 56.1925 36.075 56.3875C34.32 56.745 33.1825 57.7525 32.305 59.7025C31.8825 60.71 31.525 61.555 31.525 61.62C31.525 61.815 31.915 61.75 33.7675 61.2625Z" fill="white"/>
<path d="M27.7875 53.43C23.465 52.39 23.3025 52.26 21.8075 48.9775C20.8975 46.9625 20.475 45.5325 20.475 44.59C20.475 43.81 20.28 42.77 20.02 42.2825C19.5975 41.47 17.55 39.65 17.095 39.65C16.705 39.65 16.9325 42.965 17.3875 43.8425C17.6475 44.3625 18.2975 45.1425 18.85 45.5975C19.7275 46.345 21.97 50.6025 21.6775 50.9275C21.45 51.1225 17.745 48.2625 16.6725 46.995C14.7225 44.785 14.69 44.655 15.015 41.34C15.21 39.195 15.535 37.8625 16.12 36.8225C17.0625 35.0025 17.095 34.2875 16.2175 32.305L15.5675 30.7125L14.5925 32.2725C13.5525 33.9625 13.39 35.3925 14.105 37.0825C14.43 37.895 14.495 38.8375 14.3325 40.5275C14.2025 41.8275 14.04 42.965 13.9425 43.0625C13.585 43.3875 12.09 39.455 11.505 36.79L10.9525 34.19L12.805 31.59C13.91 29.9975 15.1125 28.6975 15.86 28.275C17.485 27.3325 18.2 26.2925 18.4925 24.375C18.785 22.49 18.655 22.425 16.7375 23.5625C15.3075 24.375 14.3 25.9675 14.3 27.365C14.3 28.015 12.09 31.6225 11.18 32.435C10.6925 32.9225 11.4075 27.885 12.155 25.675C12.61 24.375 13 23.27 13.065 23.2375C13.13 23.1725 14.4625 22.5225 16.055 21.8075C18.0375 20.865 19.37 20.475 20.345 20.475C21.1575 20.475 22.23 20.28 22.7175 20.02C23.53 19.5975 25.35 17.55 25.35 17.095C25.35 16.9975 24.6025 16.9 23.725 16.9C21.8075 16.9 20.5725 17.4525 19.4025 18.8175C18.6875 19.6625 14.3975 21.97 14.0725 21.6775C13.845 21.45 16.77 17.745 18.005 16.6725C20.215 14.7225 20.345 14.69 23.66 15.015C25.805 15.21 27.1375 15.535 28.1775 16.12C29.9975 17.0625 30.7125 17.095 32.695 16.2175L34.2875 15.5675L32.7275 14.5925C31.0375 13.5525 29.6075 13.39 27.9175 14.105C27.105 14.43 26.1625 14.495 24.4725 14.3325C23.1725 14.2025 22.035 14.04 21.9375 13.9425C21.515 13.52 26.6825 11.6675 29.4775 11.2125C30.7775 11.0175 31.005 11.115 33.4425 12.8375C35.1325 14.0075 36.3025 15.1125 36.7575 15.925C37.6675 17.55 38.61 18.1675 40.6575 18.4925C42.51 18.785 42.575 18.655 41.4375 16.7375C40.625 15.3075 39.0325 14.3 37.6675 14.3C37.245 14.3 35.88 13.6175 34.645 12.7725L32.4025 11.2125L33.54 11.115C34.8075 11.0175 38.3825 11.7325 40.495 12.545C41.7625 13.0325 41.9575 13.26 43.1925 16.0225C44.1025 18.0375 44.525 19.4675 44.525 20.41C44.525 21.19 44.72 22.23 44.98 22.7175C45.4025 23.53 47.45 25.35 47.905 25.35C48.295 25.35 48.0675 22.035 47.6125 21.1575C47.3525 20.6375 46.7025 19.8575 46.15 19.4025C45.2725 18.655 43.03 14.3975 43.3225 14.0725C43.55 13.8775 47.255 16.7375 48.3275 18.005C50.2775 20.215 50.31 20.345 49.985 23.66C49.79 25.805 49.465 27.1375 48.88 28.1775C47.9375 29.9975 47.905 30.7125 48.7825 32.695L49.4325 34.2875L50.4075 32.7275C51.4475 31.0375 51.61 29.6075 50.895 27.9175C50.57 27.105 50.505 26.1625 50.6675 24.4725C50.7975 23.1725 50.96 22.035 51.0575 21.9375C51.415 21.6125 52.91 25.545 53.495 28.1775L54.0475 30.7775L52.1625 33.4425C50.9275 35.23 49.92 36.3025 49.075 36.725C48.425 37.05 47.6125 37.7325 47.32 38.1875C46.67 39.1625 46.085 42.25 46.54 42.25C46.7025 42.25 47.4825 41.8925 48.2625 41.4375C49.725 40.56 50.7 39.0325 50.7 37.635C50.7 36.985 52.91 33.3775 53.82 32.565C54.3075 32.11 53.625 36.6925 52.845 39.195L52 41.8275L49.01 43.1925C46.9625 44.1025 45.5325 44.525 44.59 44.525C43.81 44.525 42.77 44.72 42.2825 44.98C41.47 45.4025 39.65 47.45 39.65 47.905C39.65 48.295 42.965 48.0675 43.8425 47.6125C44.3625 47.3525 45.1425 46.7025 45.5975 46.15C46.345 45.2725 50.6025 43.03 50.9275 43.3225C51.1225 43.55 48.2625 47.255 46.995 48.3275C44.785 50.2775 44.655 50.31 41.34 49.985C39.195 49.79 37.8625 49.465 36.8225 48.88C35.0025 47.9375 34.2875 47.905 32.305 48.7825L30.7125 49.4325L32.2725 50.4075C33.9625 51.4475 35.3925 51.61 37.0825 50.895C37.895 50.57 38.8375 50.505 40.5275 50.6675C41.8275 50.7975 42.965 50.96 43.0625 51.0575C43.3875 51.415 39.455 52.91 36.8225 53.495L34.2225 54.0475L31.59 52.195C29.8675 50.9925 28.6975 49.8875 28.21 49.0425C27.3325 47.45 26.39 46.8325 24.3425 46.5075C22.49 46.215 22.425 46.345 23.5625 48.2625C24.375 49.6925 25.9675 50.7 27.365 50.7C27.9825 50.7 31.4925 52.8125 32.435 53.755C32.76 54.1125 29.7375 53.885 27.7875 53.43Z" fill="white"/>
</g>
<defs>
<clipPath id="clip0_1_11518">
<rect width="65" height="65" fill="white"/>
</clipPath>
</defs>
</svg>
